<svg width="30" height="30" viewBox="0 0 30 30" fill="none" xmlns="http://www.w3.org/2000/svg">
<path d="M9.34447 16.2176C10.2527 16.0675 10.7306 16.0963 12.5185 16.0963C8.35687 11.1294 9.41964 3.59656 14.8986 0.000976562C9.94589 0.0610353 5.93506 4.12332 5.93506 9.10778C5.93512 11.9804 7.26717 14.5469 9.34447 16.2176Z" fill="#C1E8FD"/>
<path d="M15.0007 16.0965H17.3679C18.8328 16.0965 20.0668 16.9834 20.6088 18.2125C25.6428 18.3443 29.8887 14.2407 29.8887 9.10742C29.8887 4.087 25.8198 0 20.8137 0C12.3168 0 8.53241 10.6679 15.0007 16.0965V16.0965ZM19.9335 4.44389V3.69536C19.9335 3.20771 20.3278 2.812 20.8137 2.812C21.3002 2.812 21.6939 3.20771 21.6939 3.69536V4.44383C22.1175 4.44383 22.4929 4.49318 22.9321 4.66759V4.66818C23.3745 4.84365 23.7806 5.11871 24.1151 5.47677C24.4478 5.83248 24.4296 6.39195 24.0746 6.72524C23.7045 7.07171 23.1451 7.02665 22.8306 6.68459C22.5524 6.38718 22.1727 6.21465 21.7878 6.21054H19.7651C19.2128 6.21054 18.7622 6.65854 18.7622 7.21759C18.7622 7.77236 19.2123 8.22401 19.7651 8.22401H21.8623C23.3862 8.22401 24.6262 9.46842 24.6262 10.9978C24.6262 12.3594 23.6294 13.7709 21.6939 13.7709V14.5194C21.6939 15.0075 21.3002 15.4027 20.8137 15.4027C20.3278 15.4027 19.9335 15.0075 19.9335 14.5194V13.7709C19.59 13.7709 18.7672 13.8254 17.8415 13.1808C17.4419 12.9023 17.3427 12.3522 17.6203 11.9512C17.8973 11.5501 18.4459 11.4506 18.845 11.7292C19.0748 11.8906 19.3687 12.0015 19.6571 12.0042H21.8629C22.4193 12.0042 22.8658 11.5523 22.8658 10.9978C22.8658 10.4424 22.4157 9.99071 21.8623 9.99071C21.0867 9.99071 20.5408 9.99071 19.7651 9.99071C18.2417 9.99071 17.0018 8.74695 17.0018 7.21759C17.0017 5.79812 18.0689 4.44389 19.9335 4.44389V4.44389Z" fill="#0E60E2"/>
<path d="M29.3547 21.9975C28.5914 21.2315 27.3527 21.2294 26.5873 21.9975L23.7155 24.8796C23.4009 25.1947 22.9743 25.3726 22.5295 25.3726H15.0535C13.9708 25.3726 13.0935 24.4922 13.0935 23.4062C13.0935 22.3185 13.9726 21.4387 15.0535 21.4387H17.3303C18.3106 21.4387 19.1269 20.6641 19.1482 19.6926C19.1716 18.6843 18.3627 17.8629 17.3678 17.8629C11.3906 17.8629 15.0828 17.8623 10.8249 17.8623C8.65312 17.8623 6.58773 18.8318 5.195 20.5159L4.13412 21.8676C4.07849 21.9385 3.99352 21.9799 3.90362 21.9799H0.586807C0.262714 21.9799 0 22.2435 0 22.5688V29.4106C0 29.7359 0.262714 29.9996 0.586807 29.9996H23.2571C23.8275 29.9996 24.3738 29.7723 24.7763 29.3683L29.3541 24.7742C30.1187 24.0075 30.1175 22.7655 29.3547 21.9975V21.9975Z" fill="#C1E8FD"/>
</svg>
